# xmcd
#
# Track frame offsets:
#	150
#	10249
#	24017
#	34904
#	54835
#	65484
#	81637
#	97509
#	110097
#	122052
#	136932
#	150568
#	161561
#	170516
#	184211
#
# Disc length: 2657 seconds
#
# Revision: 1
# Processed by: cddbd v1.5.2PL0 Copyright (c) Steve Scherf et al.
# Submitted via: EZCDAudioConverter 2.1.7.1
#
DISCID=b80a5f0f
DTITLE=V/A - The World Of The Small Faces and Beyond
DYEAR=2012
DGENRE=MOJO
TTITLE0=Steve Marriott and The Moments - Money, Money
TTITLE1=Jimmy Reed - Baby What You Want Me To Do
TTITLE2=Bobby Bland - Don't Cry No More
TTITLE3=Nashville Teens - Widdicombe Fair
TTITLE4=Fleur De Lys with Sharon Tandy - Gotta Get Enough Time [Demo]
TTITLE5=The Attack - Magic In The Air
TTITLE6=Ian McLagan and The Bump Band - Never Say Never
TTITLE7=Big Joe Turner - Careless Love
TTITLE8=Eddie Boyd - Five Long Years
TTITLE9=Ray Charles - Drown In My Own Tears
TTITLE10=Muddy Waters - I'm Ready
TTITLE11=Lonnie Donegan - Rock Island Line
TTITLE12=Rambling Boys - Roll On Buddy
TTITLE13=Harry Belafonte - I'm Just A Country Boy
TTITLE14=Ida Cox - Four Day Creep
EXTD=
EXTT0=
EXTT1=
EXTT2=
EXTT3=
EXTT4=
EXTT5=
EXTT6=
EXTT7=
EXTT8=
EXTT9=
EXTT10=
EXTT11=
EXTT12=
EXTT13=
EXTT14=
PLAYORDER=
